<svg width="22" height="22" viewBox="0 0 22 22" fill="none" xmlns="http://www.w3.org/2000/svg">
<path fill-rule="evenodd" clip-rule="evenodd" d="M17.6 11.7333V10.2667H22V11.7333H17.6ZM16.1847 4.77687L18.26 2.703L19.2969 3.73998L17.2216 5.81528L16.1847 4.77687ZM11 16.1333C8.16493 16.1333 5.86667 13.8351 5.86667 11C5.86667 8.16347 8.16493 5.86667 11 5.86667C13.8351 5.86667 16.1333 8.16347 16.1333 11C16.1333 13.8351 13.8351 16.1333 11 16.1333ZM11 7.32447C8.97013 7.32447 7.326 8.97013 7.326 11C7.326 13.0299 8.9716 14.674 11 14.674C13.0284 14.674 14.674 13.0299 14.674 11C14.674 8.97013 13.0284 7.32447 11 7.32447ZM10.2667 0H11.7333V4.4H10.2667V0ZM2.70307 18.2585L4.77841 16.1846L5.81533 17.223L3.74147 19.2969L2.70307 18.2585ZM2.70307 3.73998L3.74147 2.703L5.81533 4.77687L4.77841 5.81528L2.70307 3.73998ZM4.4 11.7333H0V10.2667H4.4V11.7333ZM11.7333 22H10.2667V17.6H11.7333V22ZM19.2969 18.2585L18.26 19.2969L16.1847 17.223L17.2216 16.1846L19.2969 18.2585Z" fill="#FCCC1F"/>
<path fill-rule="evenodd" clip-rule="evenodd" d="M11.0176 11.4616L11.0229 11.433L13.4798 13.7749C14.2369 13.0981 14.7135 12.1139 14.7135 11.0185C14.7135 8.97727 13.0588 7.32252 11.0176 7.32239V11.4616Z" fill="#FCCC1F"/>
</svg>
