<?xml version="1.0" encoding="utf-8"?>
<svg viewBox="5.107 181.945 380.169 342.823" xmlns="http://www.w3.org/2000/svg">
  <path fill="currentColor" d="M 216 288 L 168 288 C 159.16 288 152 295.16 152 304 L 152 496 C 152 504.84 159.16 512 168 512 L 216 512 C 224.84 512 232 504.84 232 496 L 232 304 C 232 295.16 224.84 288 216 288 Z M 88 384 L 40 384 C 31.16 384 24 391.16 24 400 L 24 496 C 24 504.84 31.16 512 40 512 L 88 512 C 96.84 512 104 504.84 104 496 L 104 400 C 104 391.16 96.84 384 88 384 Z M 344 192 L 296 192 C 287.16 192 280 199.16 280 208 L 280 496 C 280 504.84 287.16 512 296 512 L 344 512 C 352.84 512 360 504.84 360 496 L 360 208 C 360 199.16 352.84 192 344 192 Z"/>
</svg>