<svg width="18" height="17" viewBox="0 0 18 17" fill="none" xmlns="http://www.w3.org/2000/svg">
<path d="M10.2161 5.66667C9.5066 5.66667 6.46066 5.73679 4.5 8.71073V5.66667C4.5 3.79171 2.98617 2.26667 1.125 2.26667C0.503789 2.26667 0 2.77419 0 3.4C0 4.02581 0.503789 4.53333 1.125 4.53333C1.74516 4.53333 2.25 5.04192 2.25 5.66667V14.7333C2.25 15.9835 3.25898 17 4.5 17H10.6875C10.9983 17 11.25 16.7464 11.25 16.4333V15.8667C11.25 15.2409 10.7462 14.7333 10.125 14.7333H9L13.5 11.3333V16.4333C13.5 16.7464 13.7517 17 14.0625 17H15.1875C15.4983 17 15.75 16.7464 15.75 16.4333V9.13254C15.3882 9.2271 15.0156 9.29333 14.625 9.29333C12.452 9.29333 10.6341 7.73323 10.2161 5.66667ZM15.75 2.26667H13.5L11.25 0V4.76C11.25 6.63779 12.761 8.16 14.625 8.16C16.489 8.16 18 6.63779 18 4.76V0L15.75 2.26667ZM13.2188 5.1C12.908 5.1 12.6562 4.84642 12.6562 4.53333C12.6562 4.22025 12.908 3.96667 13.2188 3.96667C13.5295 3.96667 13.7812 4.22025 13.7812 4.53333C13.7812 4.84642 13.5295 5.1 13.2188 5.1ZM16.0312 5.1C15.7205 5.1 15.4688 4.84642 15.4688 4.53333C15.4688 4.22025 15.7205 3.96667 16.0312 3.96667C16.342 3.96667 16.5938 4.22025 16.5938 4.53333C16.5938 4.84642 16.342 5.1 16.0312 5.1Z" fill="#FCCC1F"/>
</svg>
